<?xml version="1.0" encoding="UTF-8"?> <svg xmlns="http://www.w3.org/2000/svg" width="362.5" height="73.7"><circle fill="#FFF" cx="29.256" cy="30.658" r="23.016"></circle><path fill="#C82128" d="M19.301 31.13a9.956 9.956 0 0 1-.039-.779c0-5.566 4.486-10.102 10.002-10.102 5.514 0 10 4.535 10 10.102 0 .292-.02.577-.043.863 2.291-.32 4.938-.286 7.918.369.029-.409.062-.818.062-1.232 0-9.947-8.045-18.04-17.938-18.04s-17.939 8.093-17.939 18.04c0 .464.035.919.068 1.374 2.96-.723 5.604-.841 7.909-.595z"></path><g fill="#951B1E"><path d="M39.223 31.214c2.289-.32 4.934-.286 7.912.366.027-.408.066-.812.066-1.229 0-.257-.027-.504-.037-.758-3.002-.664-5.664-.695-7.971-.373.043.373.07.749.07 1.131.001.292-.019.577-.04.863zM19.299 31.13a9.54 9.54 0 0 1-.037-.779c0-.41.033-.813.078-1.212-2.322-.255-4.994-.136-7.984.6-.008.205-.031.406-.031.612 0 .465.025.923.062 1.376 2.959-.725 5.605-.843 7.912-.597z"></path></g><path fill="#F15D61" d="M58.27 28.927l-6.713-3.866c.443 1.779.683 3.639.683 5.559 0 12.694-10.289 22.982-22.98 22.982-12.693 0-22.98-10.288-22.98-22.982 0-10.482 7.02-19.316 16.607-22.079L16.045 4.6c-2.072-1.196-4.043-1.79-5.807-1.84-4.623-.135-7.842 3.457-7.836 9.729L2.42 33.73l.02 20.912.004 6.577c.004 2.427.482 4.446 1.342 6.007 2.211 4.023 6.908 4.991 12.316 1.863l11.33-6.555 3.039-1.758 3.545-2.051 21.738-12.573c2.754-1.592 5.484-2.925 7.137-5.76 2.267-3.894.73-8.377-4.621-11.465z"></path><path fill="#C82128" d="M32.691 35.053a19.474 19.474 0 0 0-3.121 2.063 19.613 19.613 0 0 0-3.125-2.063c-3.611-1.919-9.605-3.615-17.637-.824l-.062.019c.27 1.526.689 3.001 1.271 4.394l.295-.086c12.166-4.234 18.227 3.857 18.479 4.204l.779 1.094.775-1.094c.248-.341 6.189-8.251 18.088-4.329a20.953 20.953 0 0 0 .723-2.124c.02-.075.035-.148.057-.219.18-.674.334-1.359.447-2.059 0-.004 0-.008.002-.012-7.697-2.472-13.459-.829-16.971 1.036z"></path><g fill="#343433"><path d="M103.4 47.291h-5.852V35.075L91.15 47.291h-3.73l-6.438-12.287v12.287H75.13V22.787h5.924l8.23 15.178 8.229-15.178h5.887v24.504zM125.086 39.61h-13.459c.477 2.196 1.975 3.547 3.951 3.547 1.352 0 2.926-.328 3.912-2.12l5.193 1.062c-1.572 3.876-4.9 5.741-9.105 5.741-5.303 0-9.693-3.913-9.693-9.728 0-5.779 4.391-9.729 9.73-9.729 5.193 0 9.361 3.73 9.471 9.729v1.498zm-13.35-3.584h7.572c-.551-1.975-2.012-2.888-3.693-2.888-1.648.001-3.33 1.024-3.879 2.888zM158.365 35.809v11.482h-5.814v-10.24c0-2.084-1.355-3.4-3.072-3.4-2.158 0-3.584 1.572-3.584 4.644v8.997h-5.852v-10.24c0-2.084-1.354-3.4-3.109-3.4-2.121 0-3.51 1.572-3.51 4.644v8.997h-5.854v-18.36h5.854v1.681c1.242-1.388 3.033-2.229 5.412-2.229 2.561 0 4.754 1.096 5.998 3.107 1.463-1.901 3.656-3.107 6.51-3.107 3.912-.001 7.021 2.961 7.021 7.424zM180.818 38.112c0 5.814-4.609 9.692-10.059 9.692-5.559 0-10.166-3.878-10.166-9.692 0-5.779 4.607-9.655 10.166-9.655 5.45 0 10.059 3.876 10.059 9.655zm-5.63 0c0-2.854-2.16-4.755-4.428-4.755-2.377 0-4.533 1.901-4.533 4.755 0 2.89 2.156 4.754 4.533 4.754 2.267 0 4.428-1.864 4.428-4.754zM196.797 28.822l-.254 5.852h-1.061c-4.098 0-6.328 2.121-6.328 6.876v5.741H183.3V28.933h5.854v3.51c1.316-2.194 3.328-3.767 6.328-3.767.51 0 .875.036 1.315.146zM205.354 23.519c0 1.864-1.428 3.255-3.4 3.255-1.977 0-3.367-1.391-3.367-3.255 0-1.792 1.391-3.328 3.367-3.328 1.972-.001 3.4 1.536 3.4 3.328zm-6.327 23.772V28.933h5.852v18.358h-5.852zM225.066 47.291h-16.971v-3.768l9.217-9.946h-9v-4.645h16.422v3.84l-9.215 9.874h9.547v4.645zM245.508 39.61h-13.459c.475 2.196 1.975 3.547 3.951 3.547 1.35 0 2.924-.328 3.912-2.12l5.195 1.062c-1.574 3.876-4.902 5.741-9.107 5.741-5.303 0-9.693-3.913-9.693-9.728 0-5.779 4.391-9.729 9.73-9.729 5.191 0 9.361 3.73 9.471 9.729v1.498zm-13.348-3.584h7.568c-.547-1.975-2.012-2.888-3.691-2.888-1.648.001-3.33 1.024-3.877 2.888zM270.338 47.657c-.695.108-1.426.183-2.193.183-7.314 0-13.057-5.631-13.057-12.765 0-7.168 5.742-12.836 13.057-12.836 7.312 0 13.057 5.668 13.057 12.836 0 4.134-1.938 7.754-4.973 10.095l6.365 8.339h-7.904l-4.352-5.852zm-2.193-5.34c3.986 0 7.021-3.071 7.021-7.242 0-4.205-3.035-7.314-7.021-7.314s-7.021 3.109-7.021 7.314c-.001 4.171 3.034 7.242 7.021 7.242zM302.41 47.291h-5.852v-1.756c-1.391 1.463-3.328 2.305-5.633 2.305-4.279 0-7.133-3.035-7.133-7.646V28.933h5.816v10.021c0 2.157 1.279 3.62 3.145 3.62 2.305 0 3.805-1.572 3.805-5.122v-8.52h5.852v18.359zM319.598 28.822l-.258 5.852h-1.059c-4.098 0-6.328 2.121-6.328 6.876v5.741h-5.852V28.933h5.852v3.51c1.314-2.194 3.33-3.767 6.328-3.767.512 0 .877.036 1.317.146zM337.771 35.662v11.629h-5.633v-1.352c-1.277 1.096-3.035 1.9-5.486 1.9-4.094 0-6.838-2.377-6.838-5.998 0-3.584 2.744-5.925 7.643-5.925h4.682v-.365c0-1.536-1.061-2.56-2.594-2.56-1.758 0-2.781.694-3.074 2.304l-5.521-1.134c.803-3.549 4.021-5.778 8.41-5.778 5.156.001 8.411 2.596 8.411 7.279zm-5.632 4.388v-.402h-4.021c-1.465 0-2.377.768-2.377 1.902 0 1.171 1.023 1.901 2.559 1.901 2.012 0 3.839-1.352 3.839-3.401zM359.494 36.026v11.265h-5.814v-10.02c0-2.158-1.279-3.62-3.146-3.62-2.305 0-3.801 1.572-3.801 5.119v8.521h-5.854V28.933h5.854v1.755c1.387-1.462 3.328-2.304 5.631-2.304 4.277 0 7.13 3.034 7.13 7.642z"></path></g></svg> 