<?xml version="1.0" encoding="UTF-8"?> <svg xmlns="http://www.w3.org/2000/svg" width="320.5" height="73.7"><g fill="#353635"><path d="M96.749 47.851h-19.06V23.385h18.949v5.185H83.713v4.603h11.868v4.891H83.713v4.604h13.036v5.183zM118.549 36.604v11.247h-5.805V37.845c0-2.156-1.278-3.614-3.14-3.614-2.302 0-3.8 1.57-3.8 5.11v8.51h-5.843V29.52h5.843v1.752c1.39-1.46 3.324-2.301 5.623-2.301 4.274 0 7.122 3.031 7.122 7.633zM141.261 48.213c0 5.661-4.817 8.764-10.771 8.764-4.198 0-7.375-1.459-9.163-4.419l4.854-2.992c1.353 1.645 2.411 2.263 4.309 2.263 2.631 0 4.93-1.313 4.93-4.2V46.39c-1.424 1.277-3.321 2.009-5.695 2.009-4.856 0-8.945-3.907-8.945-9.714 0-5.769 4.089-9.713 8.945-9.713 2.374 0 4.271.731 5.695 2.01V29.52h5.841v18.693zm-5.841-9.529c0-2.812-2.118-4.746-4.49-4.746-2.558 0-4.418 1.935-4.418 4.746 0 2.849 1.86 4.747 4.418 4.747 2.372 0 4.49-1.899 4.49-4.747zM150.539 41.606c0 .949.693 1.604 1.754 1.604.51 0 1.276-.218 2.117-.512l.913 4.564c-1.06.512-2.19 1.135-4.311 1.135-3.796 0-6.316-2.559-6.316-6.357V19.733h5.843v21.873zM163.393 24.115c0 1.862-1.425 3.25-3.396 3.25s-3.359-1.388-3.359-3.25c0-1.791 1.388-3.324 3.359-3.324s3.396 1.533 3.396 3.324zm-6.317 23.736V29.52h5.843v18.331h-5.843zM171.354 41.897c.255 1.57 1.679 2.155 3.249 2.155 1.533 0 2.372-.658 2.372-1.462 0-.621-.475-1.093-1.826-1.35l-3.723-.732c-3.397-.621-5.331-2.446-5.331-5.332 0-3.76 3.249-6.206 7.886-6.206 4.563 0 7.598 2.082 8.324 5.26l-5.33 1.059c-.182-1.133-1.277-2.156-3.066-2.156-1.57 0-2.08.769-2.08 1.425 0 .512.217 1.023 1.386 1.277l4.31.878c3.467.73 5.076 2.811 5.076 5.514 0 4.052-3.506 6.171-8.326 6.171-4.311 0-7.996-1.569-8.617-5.332l5.696-1.169zM203.741 36.604v11.247h-5.804V37.845c0-2.156-1.278-3.614-3.179-3.614-2.264 0-3.761 1.57-3.761 5.11v8.51h-5.844V19.733h5.844v11.538c1.424-1.46 3.323-2.301 5.661-2.301 4.237.001 7.083 3.032 7.083 7.634zM229.522 48.213c-.693.11-1.423.185-2.189.185-7.303 0-13.036-5.623-13.036-12.742 0-7.158 5.733-12.819 13.036-12.819 7.3 0 13.034 5.661 13.034 12.819 0 4.124-1.936 7.739-4.967 10.075l6.355 8.326h-7.889l-4.344-5.844zm-2.189-5.33c3.978 0 7.01-3.066 7.01-7.228 0-4.202-3.032-7.305-7.01-7.305-3.981 0-7.011 3.103-7.011 7.305 0 4.161 3.03 7.228 7.011 7.228zM261.547 47.851h-5.843v-1.756c-1.387 1.462-3.322 2.303-5.624 2.303-4.271 0-7.119-3.03-7.119-7.632V29.52h5.807v10.004c0 2.155 1.278 3.615 3.138 3.615 2.305 0 3.799-1.57 3.799-5.113V29.52h5.843v18.331zM278.711 29.411l-.258 5.841h-1.058c-4.09 0-6.316 2.116-6.316 6.865v5.733h-5.842V29.52h5.842v3.505c1.312-2.19 3.323-3.761 6.316-3.761.511 0 .878.036 1.316.147zM296.859 36.238V47.85h-5.625v-1.353c-1.275 1.096-3.03 1.899-5.477 1.899-4.089 0-6.828-2.374-6.828-5.988 0-3.579 2.739-5.916 7.633-5.916h4.672v-.365c0-1.533-1.057-2.556-2.59-2.556-1.754 0-2.776.693-3.066 2.3l-5.516-1.131c.804-3.542 4.017-5.771 8.396-5.771 5.151.002 8.401 2.595 8.401 7.269zm-5.625 4.38v-.4h-4.016c-1.461 0-2.374.767-2.374 1.899 0 1.166 1.023 1.898 2.558 1.898 2.009.001 3.832-1.349 3.832-3.397zM318.551 36.604v11.247h-5.808V37.845c0-2.156-1.276-3.614-3.138-3.614-2.302 0-3.799 1.57-3.799 5.11v8.51h-5.841V29.52h5.841v1.752c1.386-1.46 3.323-2.301 5.623-2.301 4.273 0 7.122 3.031 7.122 7.633z"></path></g><circle fill="#FFF" cx="29.615" cy="30.906" r="23.055"></circle><path fill="#C3996B" d="M58.646 29.146l-6.72-3.873a23.1 23.1 0 0 1 .683 5.566c0 12.71-10.3 23.008-23.007 23.008-12.704 0-23.005-10.298-23.005-23.008 0-10.494 7.028-19.336 16.627-22.102L16.376 4.79C14.3 3.592 12.327 3 10.56 2.949c-4.629-.134-7.847 3.462-7.844 9.739l.021 21.267.018 20.935.002 6.584c.005 2.43.485 4.451 1.343 6.015 2.213 4.029 6.918 4.996 12.331 1.867l11.343-6.564 3.04-1.759 3.552-2.053 21.762-12.588c2.757-1.594 5.491-2.928 7.143-5.768 2.274-3.898.733-8.389-4.625-11.478z"></path><path fill="#754D29" d="M43.411 42.954c.006-.006.013-.012.017-.019l-11.833-1.769.003.005-.025-.005a8.829 8.829 0 0 1-1.875.191c-3.421 0-6.443-1.667-8.328-4.226h25.387v-.01h.078a18.153 18.153 0 0 0 1.057-6.117c0-10.049-8.144-18.193-18.193-18.193-10.049 0-18.195 8.145-18.195 18.193S19.648 49.2 29.697 49.2c2.701 0 5.263-.591 7.566-1.647l5.812 6.549 6.312-3.711-5.976-7.437zM29.697 20.656c5.648 0 10.23 4.527 10.339 10.148h-20.68c.11-5.62 4.693-10.148 10.341-10.148z"></path><path fill="#3B2416" d="M31.604 41.19l1.203 7.744c1.569-.25 3.075-.756 4.479-1.36l-5.682-6.384z"></path></svg> 